<?xml version="1.0" encoding="utf-8"?>
<!-- Generator: Adobe Illustrator 24.0.2, SVG Export Plug-In . SVG Version: 6.00 Build 0)  -->
<svg version="1.1" id="Layer_1" xmlns="http://www.w3.org/2000/svg" xmlns:xlink="http://www.w3.org/1999/xlink" x="0px" y="0px"
	 viewBox="0 0 300 300" style="enable-background:new 0 0 300 300;" xml:space="preserve">
<style type="text/css">
	.st0{fill:url(#SVGID_1_);}
	.st1{fill:url(#SVGID_2_);}
	.st2{fill:url(#SVGID_3_);}
	.st3{fill:url(#SVGID_4_);}
	.st4{fill:url(#SVGID_5_);}
	.st5{fill:url(#SVGID_6_);}
	.st6{fill:url(#SVGID_7_);}
</style>
<g id="_x37_7936963-4309-4e13-8ad9-c118bca3b221" transform="matrix(0.5612672609584172,0,0,0.5612672609584172,122.43701126284495,99.1888149739965)">
	
		<linearGradient id="SVGID_1_" gradientUnits="userSpaceOnUse" x1="-403.1948" y1="741.9329" x2="-397.9094" y2="741.9329" gradientTransform="matrix(3.9939 1.5964 1.8624 -3.4234 258.3112 3099.5869)">
		<stop  offset="0" style="stop-color:#51A4FB"/>
		<stop  offset="1" style="stop-color:#51A4FB"/>
	</linearGradient>
	<path class="st0" d="M66.5-90.7c-3.7,0-7.2,1.8-8.4,4.5c-0.6,1.3,1.3,2.2,1.9,0.9c0.6-1.4,2.4-2.7,4.7-3.1
		c-0.8,0.6-1.3,1.5-1.3,2.5c0,1.6,1.3,3,3,3c1.6,0,3-1.3,3-3c0-1-0.5-2-1.4-2.5c2.5,0.4,4.3,1.7,5,3.2c0.6,1.3,2.5,0.4,1.9-0.9
		C73.6-89,70.3-90.7,66.5-90.7z M62.7-64.1c-1.9,1.4-5.7,2.3-13.9,2.3c-8.2,0-12-0.9-13.9-2.3c-1-0.8-2.2,0.8-1.2,1.5
		c0.5,0.3,1,0.7,1.6,0.9c0.2,0.1,0.3,0.2,0.5,0.3c0.6,0.2,1,0.9,1.6,1.4c0.7,0.6,1.3,1.1,2,1.5c2.4,1.6,5.5,3.2,9.3,3.2
		c3.9,0,6.9-1.6,9.3-3.2c0.7-0.4,1.3-0.9,2-1.5c0.6-0.5,1-1.2,1.6-1.4c0.2-0.1,0.4-0.2,0.5-0.3c0.6-0.3,1.1-0.6,1.5-0.9
		C65-63.3,63.8-64.9,62.7-64.1z M56.8-59.8c-0.2,0.1-0.4,0.2-0.6,0.4l-0.3,0.2c-1.6,0.7-3.8,1.3-7,1.3c-3.2,0-5.4-0.6-7-1.3
		l-0.3-0.2c-0.5-0.3-1-0.6-1.5-0.9c2.3,0.3,5.2,0.5,8.8,0.5c3.6,0,6.5-0.2,8.8-0.5C57.4-60.1,57.1-59.9,56.8-59.8z M63.3-67.2
		c-1,0.3-0.6,1.8,0.4,1.5c1.2-0.3,2.5,1.2,2.6,2.3c0.1,1,1.7,0.9,1.6-0.2C67.6-65.6,65.4-67.8,63.3-67.2z"/>
	
		<linearGradient id="SVGID_2_" gradientUnits="userSpaceOnUse" x1="-477.0295" y1="789.6517" x2="-471.7441" y2="789.6517" gradientTransform="matrix(16.9185 9.3379 7.8892 -20.0252 1833.4735 20162.4785)">
		<stop  offset="0" style="stop-color:#51A4FB"/>
		<stop  offset="1" style="stop-color:#51A4FB"/>
	</linearGradient>
	<path class="st1" d="M58.2-90.3c3-2.1,6.7-3.3,10.4-3.2c2.7,0,5.2,0.5,7.4,1.5c2.3,1,3.7-2.4,1.5-3.4c-2.8-1.2-5.8-1.8-8.9-1.8
		c-4.8,0-9.1,1.5-12.5,3.9C54.1-91.9,56.2-88.9,58.2-90.3z M40.6-70c1.3,0.2,2.1,0.8,3,1.4c-0.1,0.4,0.2,0.8,0.5,1
		c1.5,0.7,3.1,0.9,4.9,0.9c1.7,0,3.2-0.2,4.7-0.9c0.5-0.2,0.7-0.7,0.5-1.1l0.5-0.3c0.8-0.5,1.7-0.8,2.6-0.8c1.4,0,1.4-2.1-0.1-2.1
		c-3.8,0.1-4.8,3.1-8.3,3.1c-3.8,0-4.7-2.4-8-3C39.6-72.4,39.2-70.3,40.6-70z M182.9,34.9c0-17.3-14-31.3-31.3-31.3l-0.7,0v62.6
		l0.7,0C168.9,66.1,182.9,52.1,182.9,34.9z M30.2-116.6H16c-5.9,0-9.1,2.6-8.8,11.8l0,0.5C12.1-112.3,20.6-115.4,30.2-116.6z
		 M21.3-135.2h55.3c1.1,0,1.9-0.9,2-1.9c0,0,0,0,0,0v-2.8c0-1.1-0.9-2-2-2H21.3c-1.1,0-1.9,0.9-1.9,1.9l0,0v2.8
		C19.4-136.1,20.3-135.2,21.3-135.2z M21.9-92c2.3-1,4.8-1.5,7.4-1.5c4,0,7.5,1.2,10.4,3.2c2,1.4,4.1-1.6,2.1-3
		c-3.7-2.6-8-4-12.5-3.9c-3.2,0-6.2,0.7-8.9,1.8C18.2-94.4,19.7-91,21.9-92z M90.6-104.4l0-0.5c0.3-9.2-3-11.8-8.8-11.8H67.6
		C77.2-115.4,85.7-112.3,90.6-104.4z M18.9-47.9c3.8,6.5,8.7,10.4,15,10.4h29.9c6.5,0,11.4-4.2,15.1-10.6
		c-7.7,5.1-17.9,7.1-30.2,7.1C36.6-40.9,26.5-42.9,18.9-47.9z"/>
	
		<linearGradient id="SVGID_3_" gradientUnits="userSpaceOnUse" x1="-480.305" y1="786.9964" x2="-475.0195" y2="786.9964" gradientTransform="matrix(18.8207 10.8857 8.7762 -23.3444 2055.4209 23585.4238)">
		<stop  offset="0" style="stop-color:#51A4FB"/>
		<stop  offset="1" style="stop-color:#51A4FB"/>
	</linearGradient>
	<path class="st2" d="M34.5-86c0-1-0.5-1.9-1.3-2.5c2.3,0.4,4,1.7,4.7,3.1c0.6,1.3,2.5,0.4,1.9-0.9c-1.3-2.8-4.7-4.5-8.4-4.5
		c-3.8,0-7.1,1.8-8.3,4.5c-0.6,1.3,1.3,2.2,1.9,0.9c0.7-1.5,2.5-2.8,5-3.2c-1.4,0.8-1.9,2.7-1,4.1c0.8,1.4,2.7,1.9,4.1,1
		C34-84,34.5-84.9,34.5-86z M34.5-67.2c-2.2-0.6-4.4,1.6-4.6,3.6c-0.1,1.1,1.5,1.2,1.6,0.2c0.1-1.1,1.4-2.6,2.6-2.3
		C35.1-65.4,35.5-66.9,34.5-67.2z M146.7,128.5V3.7c0-12.9-10.4-23.3-23.3-23.3H-25.6c-12.9,0-23.3,10.4-23.3,23.3l0,0v124.8
		c0,12.9,10.4,23.3,23.3,23.3h148.9C136.2,151.8,146.7,141.4,146.7,128.5C146.7,128.5,146.7,128.5,146.7,128.5z M-9.1,23.5
		C4,4.3,25.8-7.2,49-7.1c24.1,0,45.5,12.1,58.2,30.6c3,4.7-0.5,7.4-0.5,7.4L69.8,69.9c0,0-4,4.3-8.4,4.3H36.7
		c-4.4,0-8.4-4.3-8.4-4.3L-8.6,31C-8.6,31-12.1,28.2-9.1,23.5z M-18.1,123.6c-6.4,0-11.7-5.2-11.7-11.6c0,0,0,0,0,0v-11.5
		c0-6.4,5.2-11.7,11.7-11.7h134.7c6.4,0,11.7,5.2,11.7,11.7v11.5c0,6.4-5.2,11.6-11.6,11.7c0,0,0,0,0,0H-18.1z"/>
	
		<linearGradient id="SVGID_4_" gradientUnits="userSpaceOnUse" x1="-472.067" y1="782.1104" x2="-466.7816" y2="782.1104" gradientTransform="matrix(14.0976 8.9492 6.5738 -19.1916 1482.7028 19350.1504)">
		<stop  offset="0" style="stop-color:#51A4FB"/>
		<stop  offset="1" style="stop-color:#51A4FB"/>
	</linearGradient>
	<path class="st3" d="M113.6,99.3c0-5.2-7.8-5.2-7.8,0v6.8h-7.4v-6.8c0-5.2-7.8-5.2-7.8,0v6.8h-7.4v-6.8c0-5.2-7.8-5.2-7.8,0v6.8
		h-7.4v-6.8c0-5.2-7.8-5.2-7.8,0v6.8h-7.4v-6.8c0-5.2-7.8-5.2-7.8,0v6.8h-7.4v-6.8c0-5.2-7.8-5.2-7.8,0v6.8h-7.4v-6.8
		c0-5.2-7.8-5.2-7.8,0v6.8H7.1v-6.8c0-5.2-7.8-5.2-7.8,0v6.8h-7.4v-6.8c0-5.2-7.8-5.2-7.8,0v6.8H-24v5.8c0,3.2,2.6,5.8,5.8,5.8
		h134.7c3.2,0,5.8-2.6,5.8-5.8v-5.8h-8.8V99.3z M77.9,236.3v58.5c1.7-0.4,3.3-0.6,5-0.6h34c1.9,0,3.7,0.2,5.5,0.7v-58.6
		c0-7.5-4.3-14.3-11-17.5v-4.2c6.7-3.2,11-10.1,11-17.5v-41.3H77.9V197c0,7.1,3.9,13.7,10.2,17.1v5
		C81.9,222.5,77.9,229.1,77.9,236.3z"/>
	
		<linearGradient id="SVGID_5_" gradientUnits="userSpaceOnUse" x1="-86.5752" y1="521.4625" x2="-81.2886" y2="521.4625" gradientTransform="matrix(0.9716 0.4531 0.4531 -0.9716 -109.1987 606.4281)">
		<stop  offset="0" style="stop-color:#51A4FB"/>
		<stop  offset="1" style="stop-color:#51A4FB"/>
	</linearGradient>
	<circle class="st4" cx="49" cy="63.4" r="5"/>
	
		<linearGradient id="SVGID_6_" gradientUnits="userSpaceOnUse" x1="-486.6319" y1="792.3322" x2="-481.3465" y2="792.3322" gradientTransform="matrix(27.4718 20.8277 12.8103 -44.6652 3106.2219 45506.5273)">
		<stop  offset="0" style="stop-color:#51A4FB"/>
		<stop  offset="1" style="stop-color:#51A4FB"/>
	</linearGradient>
	<path class="st5" d="M49,41.7c9.6,0,18.9,3.2,26.4,9.2l23-24.3C86.9,11,68.5,1.8,49,1.8C29.5,1.8,11.2,11-0.4,26.6l23,24.2
		C30.1,44.9,39.4,41.7,49,41.7z M32.1,16.4c1.4-0.5,2.8-0.4,3.8,1.8l9.3,20.7c-3.1,0.3-6.2,0.8-9.1,1.7l-5.8-20.4
		C29.7,17.9,30.7,16.9,32.1,16.4z M182,141.1c-1.2-2.2-4-4-6.2-4h-1.4v-5.2c2.8-1.2,4.8-4,4.8-7.2v-68c-6.7,8.5-16.9,13.4-27.6,13.4
		l-0.6,0v54.6c0,2.9,1.6,5.4,3.9,6.8v5.7h-0.5c-2.2,0-4.9,1.8-6.2,4l-18.1,31.7l17.5,30.3h5.8v-28.4c0-9.2,5.2-16.6,11.7-16.6
		c6.5,0,11.7,7.4,11.7,16.6v28.4h5.8l17.5-30.3C200.3,172.8,182,141.1,182,141.1z M48.8-44.8C64.5-44.8,76-48.1,83-57
		c4.4-12.2,6.2-27.6,7-38.3c-4.3-17.9-21.9-18.3-41.2-18.3c-19.3,0-36.9,0.3-41.2,18.3c0.9,12.3,2.9,26.9,7.1,38.4
		C21.7-48,33.2-44.8,48.8-44.8z M38.2-106c2.7,3.4,7.3,6.3,12.2,7.9c2,0.6,3.1-1.6,2.3-2.9c3.1,0.3,6.1,0.2,8.6-0.4
		c2.5-0.6,1.6-4.4-1-3.8c-4.1,1-9,0.4-13.1-1l1.6,0c20.6,0,35.9,0.5,33.4,26.6c-2,21-13,27.4-33.5,27.4c-20.5,0-31.3-6.4-33.3-27.4
		C13.4-101,23.3-105.2,38.2-106z M65.8,315.2v12h68.5v-12c0-9.5-7.7-17.2-17.2-17.2c0,0,0,0,0,0H83C73.5,298,65.8,305.7,65.8,315.2
		C65.8,315.2,65.8,315.2,65.8,315.2z M133.7,330.7h-69c-3.8,0-6.9,3.1-6.9,6.9v6.1c0,3.8,3.1,6.9,6.9,6.9h69c3.8,0,6.9-3.1,6.9-6.9
		v-6.1C140.6,333.8,137.5,330.7,133.7,330.7z M-53.9,66.1l0.6,0V3.6l-0.6,0c-17.3,0-31.3,14-31.3,31.3
		C-85.2,52.1-71.2,66.1-53.9,66.1z"/>
	
		<linearGradient id="SVGID_7_" gradientUnits="userSpaceOnUse" x1="-486.1446" y1="794.4357" x2="-480.8592" y2="794.4357" gradientTransform="matrix(20.5548 23.3366 9.5848 -50.0456 2257.2859 51028.832)">
		<stop  offset="0" style="stop-color:#51A4FB"/>
		<stop  offset="1" style="stop-color:#51A4FB"/>
	</linearGradient>
	<path class="st6" d="M-4.9-71v47.5h107.6V-71c4.7-0.6,8.4-10.7,8.4-23.1s-3.7-22.5-8.4-23.1v-30c0-6.4-5.2-11.7-11.6-11.7
		c0,0,0,0,0,0H75.9c-3.4-6.1-14.2-10.5-27-10.5c-12.8,0-23.5,4.4-27,10.5H6.8c-6.4,0-11.7,5.2-11.7,11.7c0,0,0,0,0,0l-0.1,30
		c-4.9,0-8.9,10.4-8.9,23.1C-13.8-81.4-9.9-71-4.9-71z M15.5-143.5c0-3.2,2.6-5.8,5.8-5.8h55.3c3.2,0,5.8,2.6,5.8,5.8v3.5l0.1,3.2
		c-0.3,3.1-2.8,5.4-5.9,5.5H21.3c-3.1,0-5.6-2.4-5.8-5.4v-3.2h0V-143.5z M16-125.1h65.7c11.9,0,17.7,7.9,17.3,20.5
		C98.4-84.4,94.4-29,63.8-29H33.9C22.8-29,15.5-36.5,11-44.6c-9-16.1-11.7-42-12.3-59.9C-1.7-117.2,4.1-125.1,16-125.1z
		 M-50.6,141.1c-1.2-2.2-4-4-6.2-4h-0.5v-5.7c2.4-1.4,3.9-4,3.9-6.8V70l-0.6,0c-10.8,0-21-4.9-27.6-13.4v68c0,3.3,2,6.1,4.9,7.2v5.2
		h-1.4c-2.2,0-4.9,1.8-6.2,4l-18.3,31.7l17.5,30.3h5.8l0-28.4c0-9.2,5.2-16.6,11.7-16.6s11.7,7.4,11.7,16.6v28.4h5.8l17.5-30.3
		C-32.5,172.8-50.6,141.1-50.6,141.1z M33.6,330.7h-69c-3.8,0-6.9,3.1-6.9,6.9h0v6.1c0,3.8,3.1,6.9,6.9,6.9h69
		c3.8,0,6.9-3.1,6.9-6.9v-6.1C40.5,333.8,37.4,330.7,33.6,330.7z M-34.3,315.2l0,12h68.5v-12c0-9.5-7.7-17.2-17.2-17.2c0,0,0,0,0,0
		h-34C-26.6,298-34.3,305.7-34.3,315.2C-34.3,315.2-34.3,315.2-34.3,315.2z M-22.2,236.3v58.5c1.7-0.4,3.4-0.6,5.1-0.6h34
		c1.9,0,3.7,0.2,5.5,0.7v-58.6c0-7.5-4.3-14.3-11-17.5v-4.2c6.7-3.2,11-10.1,11-17.5v-41.3h-44.6V197c0,7.4,4.1,13.8,10.2,17.1v5
		C-18.2,222.5-22.2,229.1-22.2,236.3z"/>
</g>
</svg>
